<svg width="0" height="0" class="hidden">
  <symbol fill="none" xmlns="http://www.w3.org/2000/svg" xmlns:xlink="http://www.w3.org/1999/xlink" viewBox="0 0 32 32" id="code">
    <desc>Created with Pixso.</desc>
    <defs></defs>
    <path id="Vector" d="M25.33 4L6.66 4C5.18 4 4 5.2 4 6.66L4 25.33C4 26.79 5.18 28 6.66 28L25.33 28C26.79 28 28 26.79 28 25.33L28 6.66C28 5.2 26.81 4 25.33 4ZM25.33 25.33L6.66 25.33L6.66 9.33L25.33 9.33L25.33 25.33ZM22.66 16L9.33 16L9.33 13.33L22.66 13.33L22.66 16ZM17.33 21.33L9.33 21.33L9.33 18.66L17.33 18.66L17.33 21.33Z" fill="#F8F200" fill-opacity="1.000000" fill-rule="nonzero"></path>
  </symbol>
  <symbol fill="none" xmlns="http://www.w3.org/2000/svg" xmlns:xlink="http://www.w3.org/1999/xlink" viewBox="0 0 32 32" id="color_lens">
    <desc>Created with Pixso.</desc>
    <defs>
      <clipPath id="clip20_510">
        <rect id="color_lens" width="32.000000" height="32.000000" fill="white" fill-opacity="0"></rect>
      </clipPath>
    </defs>
    <g clip-path="url(#clip20_510)">
      <path id="Vector" d="M16 4C9.37 4 4 9.37 4 16C4 22.62 9.37 28 16 28C17.1 28 18 27.1 18 26C18 25.48 17.79 25.01 17.48 24.65C17.17 24.3 16.97 23.84 16.97 23.33C16.97 22.22 17.86 21.33 18.97 21.33L21.33 21.33C25.01 21.33 28 18.34 28 14.66C28 8.77 22.62 4 16 4ZM8.66 16C7.56 16 6.66 15.1 6.66 14C6.66 12.89 7.56 12 8.66 12C9.77 12 10.66 12.89 10.66 14C10.66 15.1 9.77 16 8.66 16ZM12.66 10.66C11.56 10.66 10.66 9.77 10.66 8.66C10.66 7.56 11.56 6.66 12.66 6.66C13.77 6.66 14.66 7.56 14.66 8.66C14.66 9.77 13.77 10.66 12.66 10.66ZM19.33 10.66C18.22 10.66 17.33 9.77 17.33 8.66C17.33 7.56 18.22 6.66 19.33 6.66C20.43 6.66 21.33 7.56 21.33 8.66C21.33 9.77 20.43 10.66 19.33 10.66ZM23.33 16C22.22 16 21.33 15.1 21.33 14C21.33 12.89 22.22 12 23.33 12C24.43 12 25.33 12.89 25.33 14C25.33 15.1 24.43 16 23.33 16Z" fill="#000000" fill-opacity="1.000000" fill-rule="nonzero"></path>
    </g>
  </symbol>
  <symbol fill="none" xmlns="http://www.w3.org/2000/svg" xmlns:xlink="http://www.w3.org/1999/xlink" viewBox="0 0 32 32" id="disk">
    <desc>Created with Pixso.</desc>
    <defs>
      <clipPath id="clip20_242">
        <rect id="disk" width="32.000000" height="32.000000" fill="white" fill-opacity="0"></rect>
      </clipPath>
    </defs>
    <g clip-path="url(#clip20_242)">
      <path id="Subtract" d="" fill="#F8F200" fill-opacity="1.000000" fill-rule="nonzero"></path>
    </g>
  </symbol>
  <symbol fill="none" xmlns="http://www.w3.org/2000/svg" xmlns:xlink="http://www.w3.org/1999/xlink" viewBox="0 0 30 30.0001" id="fb">
    <desc>Created with Pixso.</desc>
    <defs></defs>
    <path d="M5.47 0C2.44 0 0 2.44 0 5.47L0 24.52C0 27.55 2.44 30 5.47 30L15.79 30L15.79 18.27L12.69 18.27L12.69 14.04L15.79 14.04L15.79 10.44C15.79 7.6 17.63 5 21.85 5C23.56 5 24.82 5.16 24.82 5.16L24.72 9.11C24.72 9.11 23.43 9.1 22.03 9.1C20.5 9.1 20.26 9.8 20.26 10.96L20.26 14.04L24.84 14.04L24.64 18.27L20.26 18.27L20.26 30L24.52 30C27.55 30 30 27.55 30 24.52L30 5.47C30 2.44 27.55 3.05e-5 24.52 3.05e-5L5.47 3.05e-5L5.47 0Z" fill="#000000" fill-opacity="1.000000" fill-rule="nonzero"></path>
  </symbol>
  <symbol fill="none" xmlns="http://www.w3.org/2000/svg" xmlns:xlink="http://www.w3.org/1999/xlink" viewBox="0 0 79.9996 80" id="hp">
    <desc>Created with Pixso.</desc>
    <defs></defs>
    <path id="Vector" d="M40 80C39.6 80 39.2 79.99 38.81 79.98L46.98 57.51L58.23 57.51C60.21 57.51 62.37 55.99 63.05 54.14L71.92 29.78C73.37 25.79 71.08 22.53 66.84 22.53L51.23 22.53L38.14 58.51L38.13 58.51L30.71 78.91C13.1 74.72 0 58.89 0 40C0 21.65 12.35 6.18 29.2 1.47L21.54 22.53L21.53 22.53L8.8 57.51L17.28 57.51L28.11 27.78L34.48 27.78L23.65 57.51L32.12 57.51L42.21 29.78C43.67 25.79 41.38 22.53 37.14 22.53L30.01 22.53L38.2 0.04C38.79 0.01 39.39 0 39.99 0C62.09 0 79.99 17.9 79.99 40C79.99 62.09 62.09 80 39.99 80L40 80ZM64.2 27.76L57.83 27.76L48.91 52.24L55.28 52.24L64.2 27.76Z" fill="#000000" fill-opacity="1.000000" fill-rule="nonzero"></path>
  </symbol>
  <symbol fill="none" xmlns="http://www.w3.org/2000/svg" xmlns:xlink="http://www.w3.org/1999/xlink" viewBox="0 0 30 30" id="inst">
    <desc>Created with Pixso.</desc>
    <defs></defs>
    <path id="Vector" d="M15 11.42C14.29 11.42 13.6 11.63 13.01 12.03C12.42 12.42 11.97 12.98 11.7 13.63C11.43 14.28 11.36 15 11.49 15.69C11.63 16.39 11.97 17.02 12.47 17.52C12.97 18.02 13.61 18.36 14.3 18.5C14.99 18.64 15.71 18.57 16.36 18.29C17.02 18.02 17.57 17.57 17.97 16.98C18.36 16.39 18.57 15.7 18.57 15C18.57 14.05 18.19 13.14 17.52 12.47C16.85 11.8 15.94 11.42 15 11.42ZM23.35 8.68C23.16 8.22 22.89 7.8 22.54 7.45C22.19 7.1 21.77 6.82 21.31 6.64C19.9 6.09 16.56 6.21 15 6.21C13.43 6.21 10.09 6.08 8.68 6.64C8.22 6.82 7.8 7.1 7.45 7.45C7.1 7.8 6.83 8.22 6.64 8.68C6.09 10.08 6.21 13.44 6.21 14.99C6.21 16.55 6.09 19.9 6.65 21.31C6.83 21.77 7.1 22.19 7.45 22.54C7.8 22.89 8.22 23.17 8.68 23.35C10.09 23.9 13.44 23.78 15 23.78C16.56 23.78 19.9 23.91 21.31 23.35C21.77 23.17 22.19 22.89 22.54 22.54C22.89 22.19 23.17 21.77 23.35 21.31C23.91 19.91 23.78 16.55 23.78 15C23.78 13.44 23.91 10.09 23.35 8.68L23.35 8.68ZM15 20.49C13.91 20.49 12.85 20.16 11.94 19.56C11.04 18.96 10.34 18.1 9.92 17.1C9.51 16.09 9.4 14.99 9.61 13.92C9.82 12.86 10.34 11.88 11.11 11.11C11.88 10.34 12.86 9.82 13.92 9.61C14.99 9.4 16.09 9.51 17.1 9.92C18.1 10.34 18.96 11.04 19.56 11.94C20.16 12.85 20.49 13.91 20.49 15C20.49 15.72 20.35 16.43 20.07 17.1C19.79 17.76 19.39 18.37 18.88 18.88C18.37 19.39 17.76 19.79 17.1 20.07C16.43 20.35 15.72 20.49 15 20.49ZM20.71 10.56C20.46 10.56 20.21 10.48 20 10.34C19.79 10.2 19.62 10 19.53 9.76C19.43 9.53 19.41 9.27 19.45 9.02C19.5 8.78 19.63 8.55 19.81 8.37C19.98 8.19 20.21 8.07 20.46 8.02C20.71 7.97 20.97 7.99 21.2 8.09C21.44 8.19 21.64 8.35 21.78 8.56C21.92 8.77 21.99 9.02 21.99 9.27C21.99 9.44 21.96 9.61 21.9 9.76C21.83 9.92 21.74 10.06 21.62 10.18C21.5 10.3 21.36 10.4 21.21 10.46C21.05 10.52 20.88 10.56 20.72 10.56L20.71 10.56ZM26.78 0L3.21 0C2.36 0 1.54 0.33 0.94 0.94C0.33 1.54 0 2.36 0 3.21L0 26.78C0 27.63 0.33 28.45 0.94 29.05C1.54 29.66 2.36 30 3.21 30L26.78 30C27.63 30 28.45 29.66 29.05 29.05C29.66 28.45 30 27.63 30 26.78L30 3.21C30 2.36 29.66 1.54 29.05 0.94C28.45 0.33 27.63 0 26.78 0ZM25.63 19.41C25.55 21.13 25.16 22.65 23.9 23.9C22.65 25.15 21.13 25.55 19.42 25.63C17.65 25.73 12.35 25.73 10.58 25.63C8.86 25.55 7.35 25.15 6.09 23.9C4.84 22.65 4.44 21.13 4.36 19.41C4.26 17.65 4.26 12.34 4.36 10.58C4.45 8.86 4.83 7.34 6.09 6.09C7.35 4.84 8.87 4.44 10.58 4.36C12.35 4.26 17.65 4.26 19.42 4.36C21.13 4.45 22.65 4.84 23.9 6.09C25.15 7.35 25.55 8.87 25.63 10.58C25.73 12.35 25.73 17.64 25.63 19.41Z" fill="#000000" fill-opacity="1.000000" fill-rule="nonzero"></path>
  </symbol>
  <symbol fill="none" xmlns="http://www.w3.org/2000/svg" xmlns:xlink="http://www.w3.org/1999/xlink" viewBox="0 0 32 32" id="motion">
    <desc>Created with Pixso.</desc>
    <defs>
      <clipPath id="clip20_516">
        <rect id="auto_awesome_motion" width="32.000000" height="32.000000" fill="white" fill-opacity="0"></rect>
      </clipPath>
    </defs>
    <g clip-path="url(#clip20_516)">
      <path id="Vector" d="M18.66 2.66L5.33 2.66C3.85 2.66 2.66 3.86 2.66 5.33L2.66 18.66L5.33 18.66L5.33 5.33L18.66 5.33L18.66 2.66ZM24 8L10.66 8C9.18 8 8 9.2 8 10.66L8 24L10.66 24L10.66 10.66L24 10.66L24 8ZM26.66 13.33L16 13.33C14.52 13.33 13.33 14.53 13.33 16L13.33 26.66C13.33 28.13 14.52 29.33 16 29.33L26.66 29.33C28.13 29.33 29.33 28.13 29.33 26.66L29.33 16C29.33 14.53 28.13 13.33 26.66 13.33Z" fill="#000000" fill-opacity="1.000000" fill-rule="nonzero"></path>
    </g>
  </symbol>
  <symbol fill="none" xmlns="http://www.w3.org/2000/svg" xmlns:xlink="http://www.w3.org/1999/xlink" viewBox="0 0 56.6033 32.499" id="PC">
    <desc>Created with Pixso.</desc>
    <defs></defs>
    <path d="M34.04 31C35.81 32 37.86 32.49 40.17 32.49L45.05 32.49C47.33 32.49 49.35 32 51.09 31Q52.17 30.36 53.04 29.53Q54.3 28.32 55.15 26.68C56.12 24.81 56.6 22.64 56.6 20.19L50.46 20.19C50.46 22.22 49.95 23.85 48.93 25.1C47.93 26.34 46.64 26.96 45.05 26.96L40.17 26.96C38.55 26.96 37.24 26.34 36.25 25.1Q36.22 25.07 36.2 25.04Q34.76 23.14 34.76 20.15L34.76 12.34Q34.76 9.43 36.17 7.6Q36.23 7.52 36.29 7.44Q36.99 6.57 37.9 6.09Q38.98 5.53 40.35 5.53L45.14 5.53Q46.5 5.53 47.56 6.1Q48.32 6.51 48.93 7.21C49.89 8.3 50.37 9.75 50.37 11.57L56.51 11.57Q56.51 8.12 55.06 5.53C54.13 3.78 52.81 2.42 51.09 1.45C49.38 0.48 47.39 0 45.14 0L40.35 0C38.01 0 35.93 0.49 34.13 1.49Q33.04 2.1 32.15 2.93Q30.86 4.12 29.97 5.76C29.01 7.58 28.53 9.68 28.53 12.07L28.53 20.42C28.53 22.81 29.01 24.93 29.97 26.77C30.94 28.59 32.29 30 34.04 31ZM16.65 0.36L0 0.36L0 32.13L6.22 32.13L6.22 22.1L16.29 22.1C18.21 22.1 19.9 21.74 21.34 21.01Q22.9 20.21 23.96 18.99Q24.41 18.47 24.77 17.88Q24.95 17.57 25.11 17.24Q25.99 15.43 25.99 13.2L25.99 8.98C25.99 7.29 25.6 5.79 24.81 4.49C24.03 3.16 22.93 2.14 21.52 1.45Q19.4 0.36 16.65 0.36ZM18.77 15.65C18.11 16.32 17.25 16.65 16.2 16.65L6.22 16.65L6.22 5.81L16.56 5.81C17.52 5.81 18.29 6.12 18.86 6.76Q19 6.9 19.11 7.05Q19.76 7.91 19.76 9.25L19.76 12.93Q19.76 14.22 19.17 15.14Q19 15.41 18.77 15.65Z" fill="#FBF503" fill-opacity="1.000000" fill-rule="evenodd"></path>
  </symbol>
  <symbol fill="none" xmlns="http://www.w3.org/2000/svg" xmlns:xlink="http://www.w3.org/1999/xlink" viewBox="0 0 32 32" id="pik">
    <desc>Created with Pixso.</desc>
    <defs>
      <clipPath id="clip20_245">
        <rect id="collections" width="32.000000" height="32.000000" fill="white" fill-opacity="0"></rect>
      </clipPath>
    </defs>
    <g clip-path="url(#clip20_245)">
      <path id="Vector" d="M29.33 21.33L29.33 5.33C29.33 3.86 28.13 2.66 26.66 2.66L10.66 2.66C9.19 2.66 8 3.86 8 5.33L8 21.33C8 22.79 9.19 24 10.66 24L26.66 24C28.13 24 29.33 22.79 29.33 21.33ZM14.66 16L17.37 19.61L21.33 14.66L26.66 21.33L10.66 21.33L14.66 16ZM2.66 8L2.66 26.66C2.66 28.13 3.86 29.33 5.33 29.33L24 29.33L24 26.66L5.33 26.66L5.33 8L2.66 8Z" fill="#F8F200" fill-opacity="1.000000" fill-rule="nonzero"></path>
    </g>
  </symbol>
  <symbol fill="none" xmlns="http://www.w3.org/2000/svg" xmlns:xlink="http://www.w3.org/1999/xlink" viewBox="0 0 172.05 74" id="Projekt_logo">
    <desc>Created with Pixso.</desc>
    <defs>
      <clipPath id="clip17_297">
        <rect width="172.050003" height="74.000000" fill="white" fill-opacity="0"></rect>
      </clipPath>
    </defs>
    <rect width="172.050003" height="74.000000" fill="#FFFFFF" fill-opacity="0"></rect>
    <g clip-path="url(#clip17_297)">
      <path d="M12.53 65.93C13.6 64.78 14.86 63.48 15.61 62.87C15.4 62.85 15.06 62.81 14.7 62.75C13.92 63.47 12.92 64.51 12.02 65.47C10.89 66.69 9.95 67.76 9.95 67.76C9.94 67.77 9.93 67.79 9.92 67.8C9.18 68.01 7.92 68.35 7.08 68.58C5.84 68.93 4.73 68.84 4.73 69.65C4.73 69.65 3.45 70.34 3.75 71.37C3.75 71.37 6.32 69.31 8.53 68.96C8.53 68.96 7.18 69.84 7.3 71.02C7.3 71.02 9.12 68.31 11.24 69.96C11.24 69.96 10.29 68.67 10.68 67.97C11.02 67.58 11.72 66.79 12.53 65.93ZM8.45 33.88C8.34 33.93 8.22 33.95 8.1 33.95C7.73 33.95 7.37 33.72 7.22 33.35C7.21 33.32 7.19 33.28 7.18 33.25L6.9 33.34C7.14 34.02 7.85 34.4 8.48 34.18C8.64 34.12 8.79 34.03 8.9 33.93C9.25 33.6 9.39 33.06 9.22 32.55L8.58 32.77C8.62 32.86 8.64 32.96 8.64 33.07C8.64 33.17 8.63 33.25 8.59 33.34L8.88 33.51C8.83 33.59 8.77 33.67 8.7 33.73C8.63 33.79 8.54 33.84 8.45 33.88ZM34.4 31.8L21.73 34.89L21.73 34.88L21.74 34.89L46.48 24.19L26.09 26.69L37.01 18.72L25.31 23.28L27.08 19.74L18.71 25.76L18.64 25.63L30.5 0L11.21 22.82L11.09 10.38L4.01 27.01L3.64 22.11L0.16 34.87L0.16 34.86L0.16 34.87C0.16 34.87 0.63 34.52 1.26 34.33C1.31 34.32 1.37 34.3 1.42 34.29C1.42 34.29 1.43 34.28 1.44 34.28C1.49 34.27 1.54 34.26 1.59 34.25C1.6 34.25 1.6 34.25 1.61 34.25C1.67 34.24 1.72 34.23 1.77 34.23L1.77 34.22C1.83 34.22 1.88 34.21 1.93 34.21L1.97 34.21C2.02 34.21 2.07 34.21 2.13 34.21C2.13 34.21 2.14 34.21 2.15 34.21C2.2 34.21 2.25 34.22 2.3 34.23C2.31 34.23 2.31 34.23 2.32 34.23C2.38 34.24 2.43 34.25 2.48 34.26C2.49 34.26 2.51 34.27 2.51 34.27C2.57 34.28 2.62 34.3 2.68 34.32C3.87 34.75 4.89 34.32 4.89 34.32C4.89 34.32 6.01 35.04 6.01 35.64L6.01 35.64L6.01 35.64C6.01 35.64 4.53 35.73 4.53 35.08C4.53 35.08 2.64 34.41 0 35.39L5.57 37.78C5.57 37.76 5.28 36.72 5.6 36.36C5.7 36.23 5.88 36.19 6.16 36.29C6.26 36.32 6.34 36.31 6.38 36.27C6.82 35.82 4.71 31.94 4.71 31.94C4.71 31.94 2.82 31.75 1.19 33.46C1.08 33.58 0.97 33.7 0.86 33.83L0.86 33.82L0.86 33.83C1.03 33.54 1.56 32.7 2.44 31.96C2.97 31.52 3.64 31.12 4.43 30.9C4.64 30.38 4.37 30.71 4.81 30.44C4.82 30.44 4.82 30.44 4.82 30.44C5.03 29.07 5.8 25.54 8.48 22.52C8.66 22.32 8.84 22.12 9.04 21.93C9.04 21.93 8.35 23.22 8.35 24.11C8.37 24.09 9.05 23.08 9.99 22.15L9.99 22.14C9.99 22.14 9.97 22.16 9.96 22.18C9.79 22.56 8.51 25.28 8.64 26.07C8.65 26.08 8.65 26.08 8.65 26.09L11.23 23.73C11.23 23.73 11.22 23.74 11.22 23.74C11.14 23.84 8.8 27.01 8.57 28.1L8.57 28.11L12.47 25.32L12.47 25.32C12.45 25.35 11.97 26.01 11.77 26.38C11.63 26.64 11.61 26.73 11.61 26.76L11.62 26.78L13.72 25.88C13.72 25.88 13.63 25.99 13.48 26.14L12.7 26.94L12.5 27.14L11.08 28.58L11.06 28.61L9.97 29.71L9.28 30.42C9.28 30.42 8.71 31.01 8.64 31.32C8.58 31.62 8.9 31.8 8.9 31.8L8.89 31.8C9.18 31.96 9.42 32.21 9.55 32.51C9.63 32.69 9.67 32.89 9.67 33.1C9.67 33.51 9.5 33.89 9.22 34.16C8.94 34.43 8.55 34.6 8.12 34.6C7.73 34.6 7.38 34.46 7.1 34.23C7.15 34.3 7.92 35.26 9.33 34.51L11.07 33.24L11.15 33.18L12.95 31.86C13.38 32.37 13.78 32.97 14.14 33.66C13.07 34.67 11.25 36.44 9.42 38.37C8.34 39.52 7.25 40.73 6.33 41.87L6.98 38.82L7.03 38.57C7.03 38.57 7.03 38.57 7.03 38.57C7.02 38.57 7.02 38.57 7.01 38.58C7.01 38.58 7 38.59 7 38.59C7 38.59 6.99 38.59 6.98 38.6C6.98 38.6 6.98 38.6 6.98 38.61C6.97 38.61 6.96 38.62 6.95 38.62C6.95 38.62 6.95 38.63 6.93 38.64C6.93 38.64 6.92 38.65 6.91 38.65C6.9 38.66 6.9 38.67 6.89 38.67C6.88 38.68 6.87 38.69 6.86 38.69C6.85 38.7 6.84 38.71 6.83 38.72C6.82 38.72 6.81 38.74 6.8 38.74C6.79 38.75 6.78 38.76 6.77 38.77C6.76 38.78 6.75 38.79 6.73 38.8C6.72 38.81 6.71 38.82 6.7 38.83C6.69 38.84 6.67 38.85 6.66 38.87C6.65 38.87 6.64 38.88 6.62 38.89C6.61 38.91 6.59 38.92 6.58 38.94C6.57 38.95 6.55 38.96 6.54 38.97C6.52 38.99 6.5 39 6.49 39.02C6.48 39.03 6.47 39.04 6.45 39.05C6.44 39.07 6.42 39.09 6.39 39.11C6.38 39.12 6.37 39.13 6.36 39.14C6.35 39.16 6.33 39.17 6.32 39.18C6.32 39.18 6.32 39.18 6.32 39.18C6.3 39.2 6.28 39.23 6.25 39.25C6.24 39.26 6.22 39.28 6.21 39.29C6.19 39.31 6.17 39.33 6.15 39.35C6.13 39.37 6.11 39.39 6.1 39.4C6.08 39.42 6.07 39.44 6.06 39.45C6.05 39.46 6.04 39.47 6.03 39.47C6.03 39.48 6.03 39.48 6.02 39.49C6.01 39.5 6 39.51 5.98 39.53C5.97 39.55 5.95 39.56 5.93 39.58C5.93 39.59 5.93 39.6 5.92 39.6C5.91 39.61 5.91 39.61 5.9 39.62C5.89 39.63 5.88 39.64 5.86 39.66C5.84 39.69 5.82 39.71 5.8 39.73C5.78 39.76 5.76 39.77 5.74 39.8C5.72 39.83 5.69 39.85 5.67 39.88C5.65 39.9 5.63 39.92 5.61 39.95C5.59 39.98 5.57 40.01 5.54 40.03C5.52 40.06 5.5 40.08 5.48 40.11C5.46 40.14 5.44 40.17 5.41 40.2C5.39 40.22 5.37 40.25 5.35 40.27C5.32 40.31 5.3 40.34 5.27 40.38C5.25 40.41 5.23 40.43 5.22 40.45C5.18 40.49 5.15 40.54 5.12 40.58C5.1 40.6 5.09 40.62 5.08 40.63C5.03 40.7 4.98 40.77 4.93 40.84L4.93 40.84C4.88 40.91 4.84 40.98 4.79 41.04C4.78 41.06 4.77 41.08 4.75 41.11C4.72 41.16 4.68 41.21 4.65 41.26C4.63 41.29 4.62 41.31 4.6 41.34C4.57 41.39 4.54 41.43 4.5 41.48C4.49 41.52 4.47 41.54 4.45 41.57C4.43 41.62 4.39 41.67 4.36 41.73C4.34 41.76 4.32 41.79 4.31 41.82C4.28 41.87 4.25 41.92 4.21 41.98C4.2 42 4.18 42.04 4.16 42.07C4.13 42.13 4.1 42.18 4.07 42.24C4.05 42.27 4.03 42.3 4.02 42.34C3.87 42.6 3.74 42.87 3.59 43.17L3.59 43.17L2.87 43.29C3.02 42.92 3.16 42.59 3.31 42.27L2.14 43.92L3.31 43.8C2.31 46.1 1.58 49.11 1.58 53.39L2.53 52.79C3.37 57.57 7.32 59.68 7.32 59.68L7.31 59.65C9.48 61.07 12.13 62.06 15.04 62.46C15.44 62.51 15.77 62.54 15.85 62.54C15.85 62.54 15.85 62.54 15.85 62.54C15.9 62.55 15.95 62.56 16 62.56C17.58 62.7 19.11 62.64 20.58 62.42C20.57 62.48 20.57 62.54 20.57 62.59C20.57 63.54 21.1 64.32 21.77 64.38C20.39 66.73 19.27 69.84 19.27 69.85C19.22 70 19.11 70.26 18.99 70.34C18.66 70.42 18.63 70.43 18.25 70.55L18.26 70.55C18.13 70.42 17.04 70.22 15.93 70.64C15.94 70.64 15.94 70.64 15.94 70.65C15.32 70.92 14.71 71.42 14.28 72.26C14.73 71.89 15.57 71.3 16.26 71.38C15.45 71.85 14.05 72.73 13.89 74C13.89 74 18.75 70.58 21.15 71.21C21.15 71.21 20.8 71.61 21.62 73.08L22 71.71C22.43 70.38 20.77 70.19 20.07 70.16C20.07 70.15 20.07 70.15 20.07 70.14C20.07 70.14 20.15 69.93 20.28 69.58C20.7 68.51 21.66 66.16 22.71 64.48C22.73 64.44 22.74 64.41 22.75 64.37L22.55 64.1C22.56 64.1 22.7 63.95 22.77 63.84C22.91 63.62 23.11 63.24 23.11 62.75C23.11 62.36 23.01 61.87 22.74 61.26L23.36 60.97C23.39 61.05 23.43 61.12 23.46 61.2C23.47 61.22 23.48 61.25 23.49 61.27C23.51 61.32 23.53 61.37 23.54 61.42C23.55 61.44 23.56 61.47 23.57 61.5C23.59 61.55 23.6 61.6 23.62 61.65C23.63 61.67 23.64 61.69 23.64 61.71L27.2 60.64L26.41 59.99L26.4 59.99L26.37 59.95L26.35 59.94L12.89 47.68C12.9 47.68 12.9 47.69 12.9 47.69L12.9 47.68C16.64 49.5 21 51.62 28.41 55.05C35.7 58.41 40.32 60.37 42.7 61.34C42.72 61.35 42.74 61.36 42.76 61.37L42.76 61.37C43.11 61.51 43.4 61.63 43.65 61.73C44.16 61.93 44.64 62.12 44.67 62.13C44.71 62.11 44.76 62.09 44.8 62.07L17.59 43.42L34.4 31.8ZM15.57 37.55L11.52 40.64L14.43 34.24L14.43 34.23C14.89 35.21 15.28 36.34 15.58 37.55L15.57 37.55ZM30.06 59.62L30.16 60.11L30.16 60.11L34.9 62.91L36.1 63.6L35.44 61.92C39.35 63.07 42.54 63.13 44.65 62.14C44.65 62.14 44.65 62.14 44.65 62.14C40.96 63.23 31.82 60.15 30.06 59.62Z" fill="#DC0D15" fill-opacity="1.000000" fill-rule="nonzero"></path>
      <path d="M4.53 35.08C4.53 35.73 6.01 35.64 6.01 35.64C6.01 35.04 4.89 34.32 4.89 34.32C4.89 34.32 3.87 34.75 2.67 34.32C2.19 34.15 1.69 34.2 1.26 34.33C0.7 34.71 0 35.39 0 35.39C2.64 34.41 4.53 35.08 4.53 35.08ZM14.43 34.24L11.52 40.64L15.57 37.55C15.28 36.34 14.89 35.22 14.43 34.24ZM44.67 62.13C44.67 62.13 35.56 58.71 12.89 47.68L26.4 59.99L26.41 59.99C27.62 59.48 28.47 59.13 30.16 60.11L30.06 59.62C31.82 60.15 40.99 63.24 44.67 62.13ZM22.74 61.26C23.01 61.87 23.11 62.36 23.11 62.75C23.1 63.24 22.91 63.62 22.77 63.84C22.7 63.95 22.56 64.1 22.55 64.1L22.96 64.66C23 64.63 23.79 64.03 23.79 62.75C23.79 62.25 23.67 61.65 23.36 60.97L22.74 61.26ZM14.6 62.74C15.25 62.84 15.83 62.89 15.83 62.89L15.86 62.55C15.86 62.55 15.29 62.5 14.66 62.4L14.6 62.74ZM14.14 33.66C13.78 32.97 13.38 32.37 12.95 31.86L9.33 34.52C7.87 35.29 7.1 34.23 7.1 34.23C7.37 34.46 7.72 34.6 8.12 34.6C8.98 34.6 9.67 33.92 9.67 33.1C9.67 32.89 9.63 32.69 9.55 32.52C9.42 32.21 9.18 31.96 8.89 31.8L8.9 31.8C8.9 31.8 8.58 31.62 8.64 31.32C8.71 31.01 9.28 30.42 9.28 30.42L9.28 30.42L11.06 28.61L11.08 28.58L12.7 26.94L13.48 26.14C13.63 25.99 13.71 25.88 13.71 25.88L11.61 26.78C11.61 26.78 11.57 26.75 11.77 26.38C11.98 26.01 12.47 25.32 12.47 25.32L8.56 28.11C8.79 27.01 11.23 23.73 11.23 23.73L8.65 26.09C8.48 25.27 9.98 22.15 9.98 22.15C9.04 23.09 8.35 24.12 8.35 24.12C8.35 23.22 9.04 21.93 9.04 21.93C5.91 25.06 5.04 28.98 4.82 30.44C4.36 30.72 4.64 30.37 4.43 30.9C2.32 31.49 1.13 33.36 0.86 33.83C2.56 31.73 4.71 31.94 4.71 31.94C4.71 31.94 7.27 36.67 6.16 36.29C5.04 35.9 5.57 37.78 5.57 37.78L3.48 36.88C3.82 37.56 4.5 39.18 4.11 40.85C3.68 41.51 3.25 42.31 2.87 43.29L3.59 43.17C3.73 42.87 3.87 42.6 4.01 42.34C4.03 42.3 4.05 42.27 4.07 42.24C4.1 42.18 4.13 42.13 4.16 42.07C4.18 42.04 4.2 42.01 4.21 41.97C4.24 41.92 4.27 41.87 4.3 41.82C4.32 41.79 4.34 41.76 4.36 41.72C4.39 41.67 4.42 41.62 4.45 41.57C4.47 41.54 4.49 41.52 4.5 41.49C4.53 41.44 4.57 41.39 4.6 41.34C4.61 41.31 4.63 41.29 4.65 41.26C4.68 41.21 4.72 41.16 4.75 41.11C4.77 41.08 4.78 41.06 4.79 41.04C4.84 40.97 4.88 40.91 4.93 40.85C4.93 40.84 4.93 40.84 4.93 40.84C4.98 40.77 5.03 40.7 5.07 40.64C5.09 40.62 5.1 40.6 5.12 40.58C5.15 40.54 5.18 40.5 5.21 40.45C5.23 40.42 5.25 40.41 5.27 40.38C5.29 40.35 5.32 40.31 5.35 40.27C5.37 40.25 5.39 40.23 5.4 40.2C5.43 40.17 5.46 40.14 5.48 40.11C5.5 40.08 5.52 40.06 5.54 40.04C5.57 40.01 5.59 39.98 5.61 39.95C5.63 39.93 5.65 39.9 5.67 39.88C5.69 39.85 5.72 39.83 5.74 39.8C5.76 39.78 5.78 39.76 5.8 39.74C5.82 39.71 5.84 39.69 5.86 39.66C5.88 39.64 5.9 39.62 5.92 39.6C5.94 39.58 5.96 39.55 5.98 39.53C6 39.51 6.02 39.49 6.03 39.47C6.06 39.45 6.08 39.43 6.1 39.41C6.11 39.39 6.13 39.37 6.15 39.35C6.17 39.33 6.19 39.31 6.21 39.29C6.22 39.28 6.24 39.26 6.25 39.25C6.27 39.23 6.3 39.2 6.32 39.18C6.33 39.17 6.34 39.16 6.36 39.15C6.39 39.11 6.42 39.08 6.45 39.05C6.47 39.04 6.48 39.03 6.49 39.02C6.5 39 6.52 38.99 6.54 38.97C6.55 38.96 6.57 38.95 6.58 38.94C6.59 38.92 6.61 38.91 6.62 38.89C6.64 38.88 6.65 38.87 6.66 38.87C6.67 38.85 6.69 38.84 6.7 38.83C6.71 38.82 6.72 38.81 6.73 38.8C6.75 38.79 6.76 38.78 6.77 38.77C6.78 38.76 6.79 38.75 6.8 38.74C6.81 38.74 6.82 38.72 6.83 38.72C6.84 38.71 6.85 38.7 6.86 38.69C6.87 38.69 6.88 38.68 6.89 38.67C6.9 38.67 6.9 38.66 6.91 38.65C6.92 38.65 6.93 38.64 6.93 38.64C6.94 38.64 6.95 38.62 6.95 38.62C6.96 38.62 6.97 38.61 6.98 38.61C6.98 38.6 6.98 38.6 6.98 38.6C6.99 38.59 7 38.59 7 38.59C7 38.59 7.01 38.58 7.01 38.58C7.02 38.57 7.02 38.57 7.03 38.57C7.03 38.57 7.03 38.57 7.03 38.57L6.98 38.82L6.33 41.87C8.79 38.82 12.43 35.28 14.14 33.66ZM6.9 33.34L7.18 33.25C7.19 33.28 7.21 33.32 7.22 33.35C7.37 33.72 7.73 33.95 8.1 33.95C8.22 33.95 8.34 33.93 8.45 33.88C8.63 33.81 8.78 33.67 8.88 33.51L8.59 33.34C8.63 33.26 8.64 33.17 8.64 33.07C8.64 32.96 8.62 32.86 8.58 32.77L9.22 32.55C9.45 33.23 9.12 33.96 8.48 34.18C7.84 34.4 7.13 34.03 6.9 33.34Z" fill="#000000" fill-opacity="1.000000" fill-rule="nonzero"></path>
      <path d="M66.21 38.47C65.78 38.35 65.13 38.29 64.29 38.29L62.47 38.29L62.47 48.6L62.66 48.47L64.16 47.41L64.21 47.37L64.21 44.45L64.79 44.45C65.85 44.45 66.71 44.17 67.34 43.62C67.97 43.06 68.29 42.3 68.29 41.36C68.29 40.48 67.99 39.74 67.4 39.16C67.06 38.82 66.66 38.59 66.21 38.47ZM64.69 42.96L64.21 42.96L64.21 39.8L64.75 39.8C66.13 39.8 66.82 40.31 66.82 41.33C66.82 42.42 66.11 42.96 64.69 42.96ZM75.92 44.2C76.52 44.03 77.02 43.71 77.41 43.23C77.83 42.7 78.04 42.06 78.04 41.33C78.04 40.4 77.7 39.63 77.03 39.06C76.42 38.55 75.44 38.29 74.1 38.29L72.22 38.29L72.22 48.6L72.41 48.47L73.91 47.41L73.97 47.37L73.97 44.42L74.05 44.42L76.86 48.44L76.92 48.54L77.03 48.47L78.23 47.6L78.33 47.52L78.26 47.42L75.92 44.2ZM73.97 42.96L73.97 42.86L73.97 39.95L73.97 39.8L74.51 39.8C75.89 39.8 76.58 40.31 76.58 41.33C76.58 42.42 75.87 42.96 74.45 42.96L73.97 42.96ZM49.71 38.59C49.12 38.39 48.31 38.29 47.3 38.29L45.09 38.29L45.09 48.48L47.28 48.48C48.29 48.48 49.09 48.39 49.65 48.2C50.25 48.01 50.84 47.67 51.39 47.19C52.47 46.23 53.03 44.95 53.03 43.39C53.03 41.84 52.5 40.56 51.45 39.6C50.93 39.13 50.35 38.79 49.71 38.59ZM50.2 45.94C49.86 46.25 49.46 46.48 49.03 46.62C48.6 46.76 48.05 46.83 47.39 46.83L46.84 46.83L46.84 39.95L47.39 39.95C48.63 39.95 49.58 40.25 50.21 40.82C50.91 41.48 51.26 42.34 51.26 43.39C51.26 44.43 50.91 45.28 50.2 45.94ZM38.72 39.76C39.37 39.76 40.01 39.94 40.63 40.31L40.73 40.37L40.79 40.26L41.52 39.01L41.58 38.9L41.48 38.84C40.63 38.35 39.73 38.1 38.83 38.1C37.16 38.1 35.78 38.72 34.73 39.96C33.88 40.98 33.44 42.14 33.44 43.44C33.44 44.87 33.96 46.13 34.98 47.14C36.01 48.16 37.26 48.67 38.71 48.67C39.67 48.67 40.6 48.42 41.48 47.92L41.54 47.88L41.54 47.78L41.53 47.75L40.79 46.48L40.73 46.37L40.62 46.45C40.41 46.58 40.21 46.68 40.03 46.76C39.67 46.93 39.24 47.01 38.73 47.01C37.75 47.01 36.91 46.66 36.23 45.97C35.55 45.28 35.21 44.42 35.21 43.42C35.21 42.4 35.55 41.52 36.23 40.82C36.9 40.11 37.74 39.76 38.72 39.76ZM153.67 39.95L153.71 39.91L155.09 38.5L155.3 38.29L149.39 38.29L149.39 48.48L153.71 48.48L153.74 48.45L155.1 47.04L155.3 46.83L151.14 46.83L151.14 43.66L152.42 43.66L152.45 43.62L153.86 42.22L154.07 42L151.14 42L151.14 39.95L153.67 39.95ZM123.76 39.95L126.05 39.95L126.05 48.6L126.24 48.47L127.74 47.41L127.8 47.37L127.8 39.95L130.08 39.95L130.08 38.29L123.76 38.29L123.76 39.95ZM86.78 38.1C85.32 38.1 84.05 38.62 83.01 39.65C81.96 40.67 81.43 41.92 81.43 43.34C81.43 44.96 82.01 46.3 83.16 47.31C84.2 48.21 85.39 48.67 86.7 48.67C88.18 48.67 89.46 48.15 90.51 47.13C91.55 46.12 92.08 44.86 92.08 43.4C92.08 41.95 91.55 40.69 90.51 39.66C89.48 38.63 88.23 38.1 86.78 38.1ZM89.28 45.97C88.58 46.66 87.72 47.01 86.72 47.01C85.8 47.01 84.97 46.66 84.26 45.98C83.55 45.3 83.19 44.42 83.19 43.36C83.19 42.35 83.54 41.49 84.22 40.81C84.91 40.11 85.76 39.76 86.76 39.76C87.76 39.76 88.61 40.11 89.29 40.81C89.97 41.5 90.32 42.37 90.32 43.39C90.32 44.39 89.97 45.26 89.28 45.97ZM165.73 39.6C165.21 39.13 164.63 38.79 163.99 38.59C163.4 38.39 162.59 38.29 161.58 38.29L159.37 38.29L159.37 48.48L161.56 48.48C162.57 48.48 163.37 48.39 163.94 48.2C164.53 48.01 165.12 47.67 165.67 47.19C166.76 46.23 167.31 44.95 167.31 43.39C167.31 41.84 166.78 40.56 165.73 39.6ZM164.49 45.94C164.14 46.25 163.74 46.48 163.32 46.62C162.88 46.76 162.33 46.83 161.67 46.83L161.12 46.83L161.12 39.95L161.67 39.95C162.92 39.95 163.86 40.25 164.5 40.82C165.2 41.48 165.55 42.34 165.55 43.39C165.55 44.43 165.2 45.28 164.49 45.94ZM142.67 44.2C143.27 44.03 143.77 43.71 144.15 43.23C144.58 42.7 144.78 42.06 144.78 41.33C144.78 40.4 144.45 39.63 143.77 39.06C143.17 38.55 142.19 38.29 140.85 38.29L138.96 38.29L138.96 48.6L139.16 48.47L140.66 47.41L140.71 47.37L140.71 44.42L140.8 44.42L143.6 48.44L143.67 48.54L143.77 48.47L144.98 47.6L145.08 47.52L145.01 47.42L142.67 44.2ZM140.71 42.96L140.71 39.8L141.25 39.8C142.63 39.8 143.32 40.31 143.32 41.33C143.32 42.42 142.61 42.96 141.19 42.96L140.71 42.96ZM118.98 38.33L115.32 42.08L115.32 38.18L115.12 38.32L113.62 39.37L113.57 39.41L113.57 48.6L113.77 48.47L115.27 47.41L115.32 47.37L115.32 44.29L115.5 44.12L118.99 48.44L119.06 48.53L119.16 48.47L120.45 47.6L120.56 47.52L120.47 47.41L116.75 42.92L121.16 38.5L121.37 38.29L119.02 38.29L118.98 38.33ZM97.47 39.38L97.41 39.41L97.41 44.85C97.41 45.67 97.32 46.25 97.16 46.57C97 46.87 96.74 47.01 96.34 47.01C96.05 47.01 95.73 46.9 95.39 46.67L95.28 46.6L95.22 46.71L94.47 47.99L94.42 48.1L94.52 48.16C95.08 48.5 95.69 48.67 96.34 48.67C97.2 48.67 97.91 48.35 98.43 47.74C98.7 47.43 98.89 47.05 99.01 46.6C99.11 46.21 99.17 45.64 99.17 44.85L99.17 38.18L98.97 38.32L97.47 39.38ZM108.22 39.95L108.25 39.91L109.64 38.5L109.84 38.29L103.94 38.29L103.94 48.48L108.25 48.48L108.29 48.45L109.64 47.04L109.84 46.83L105.69 46.83L105.69 43.66L106.96 43.66L107 43.62L108.4 42.22L108.61 42L105.69 42L105.69 39.95L108.22 39.95Z" fill="#000000" fill-opacity="1.000000" fill-rule="nonzero"></path>
      <path d="M170.26 41.66C169.28 41.66 168.48 40.86 168.48 39.88C168.48 38.89 169.28 38.1 170.26 38.1C171.25 38.1 172.05 38.89 172.05 39.88C172.05 40.86 171.25 41.66 170.26 41.66ZM170.26 38.37C169.42 38.37 168.75 39.03 168.75 39.88C168.75 40.71 169.42 41.39 170.26 41.39C171.1 41.39 171.78 40.71 171.78 39.88C171.78 39.03 171.1 38.37 170.26 38.37ZM170.75 40.91L170.22 40.1L169.87 40.1L169.87 40.91L169.58 40.91L169.58 38.86L170.41 38.86C170.76 38.86 171.08 39.11 171.08 39.49C171.08 39.94 170.67 40.09 170.56 40.09L171.1 40.91L170.75 40.91ZM170.41 39.12L169.87 39.12L169.87 39.84L170.41 39.84C170.59 39.84 170.78 39.7 170.78 39.49C170.78 39.26 170.59 39.12 170.41 39.12Z" fill="#000000" fill-opacity="1.000000" fill-rule="nonzero"></path>
    </g>
  </symbol>
  <symbol fill="none" xmlns="http://www.w3.org/2000/svg" xmlns:xlink="http://www.w3.org/1999/xlink" viewBox="0 0 168.001 35.1885" id="ps4">
    <desc>Created with Pixso.</desc>
    <defs></defs>
    <path id="Vector" d="M164.16 29.7L164.48 29.7L164.48 27.55L165.26 27.55L165.26 27.27L163.38 27.27L163.38 27.55L164.16 27.55L164.16 29.7Z" fill="#FBF503" fill-opacity="1.000000" fill-rule="nonzero"></path>
    <path id="Vector" d="M165.89 27.72L166.54 29.7L166.87 29.7L167.52 27.72L167.52 29.7L167.79 29.7L167.79 27.27L167.39 27.27L166.71 29.35L166.01 27.27L165.56 27.27L165.56 29.7L165.89 29.7L165.89 27.72Z" fill="#FBF503" fill-opacity="1.000000" fill-rule="nonzero"></path>
    <path id="Vector" d="M112.02 23.87L112.02 13.8C112.02 11.75 112.98 10.28 115.01 10.28L127.55 10.28C127.63 10.28 127.7 10.2 127.7 10.13L127.7 8.13C127.7 8.11 127.7 8.09 127.69 8.07L112.36 8.07C109.03 8.5 107.41 10.83 107.41 13.8L107.41 23.87C107.41 25.92 106.43 27.39 104.42 27.39L91.17 27.39C91.1 27.39 91.02 27.44 91.02 27.54L91.02 29.55C91.02 29.63 91.08 29.69 91.13 29.71L106.17 29.71C110.09 29.61 112.02 27.1 112.02 23.87Z" fill="#FBF503" fill-opacity="1.000000" fill-rule="nonzero"></path>
    <path id="Vector" d="M60.49 29.71L64.9 29.71C64.96 29.69 65.01 29.63 65.01 29.55L65.01 23.13C65.01 21.08 66.16 19.66 67.84 19.66L85.98 19.66C90.07 19.66 92.05 17.12 92.05 13.8C92.05 10.83 90.43 8.5 87.11 8.07L60.41 8.07C60.4 8.09 60.39 8.1 60.39 8.13L60.39 10.13C60.39 10.23 60.44 10.28 60.54 10.28L84.45 10.28C86.48 10.28 87.44 11.75 87.44 13.8C87.44 15.86 86.48 17.33 84.45 17.33L65.53 17.33C62.6 17.33 60.39 19.84 60.39 23.13L60.39 29.55C60.39 29.63 60.43 29.69 60.49 29.71Z" fill="#FBF503" fill-opacity="1.000000" fill-rule="nonzero"></path>
    <path id="Vector" d="M127.63 27.39L151.71 27.39C151.79 27.39 151.84 27.44 151.84 27.49L151.84 29.55C151.84 29.65 151.91 29.7 151.99 29.7L156.33 29.7C156.41 29.7 156.48 29.65 156.48 29.55L156.48 27.54C156.48 27.47 156.56 27.39 156.63 27.39L160.95 27.39C161.05 27.39 161.1 27.32 161.1 27.24L161.1 25.21C161.1 25.14 161.05 25.06 160.95 25.06L156.63 25.06C156.56 25.06 156.48 24.98 156.48 24.91L156.48 10.28C156.48 9.09 156.04 8.33 155.3 8.07L154.04 8.07C153.65 8.18 153.22 8.36 152.77 8.63L126.83 24.73C125.82 25.36 125.47 26.07 125.72 26.61C125.92 27.06 126.5 27.39 127.63 27.39ZM131.39 24.71L151.49 12.21C151.61 12.11 151.87 12.13 151.87 12.41L151.87 24.91C151.87 24.98 151.79 25.06 151.71 25.06L131.52 25.06C131.34 25.06 131.26 25.01 131.24 24.96C131.21 24.86 131.26 24.78 131.39 24.71Z" fill="#FBF503" fill-opacity="1.000000" fill-rule="nonzero"></path>
    <path id="Vector" d="M16.82 0C18.78 0.36 20.7 0.89 22.62 1.43C23.71 1.75 24.8 2.08 25.89 2.43C27.59 2.98 29.29 3.6 30.83 4.52C31.53 4.94 32.19 5.42 32.76 6C33.37 6.6 33.88 7.32 34.24 8.1C34.92 9.51 35.15 11.09 35.22 12.64C35.25 13.66 35.25 14.68 35.06 15.68C34.9 16.55 34.62 17.4 34.16 18.16C33.75 18.82 33.19 19.4 32.5 19.77C31.84 20.13 31.08 20.3 30.33 20.28C29.19 20.3 28.09 19.93 27.07 19.45C27.05 16.05 27.07 12.64 27.06 9.23C27.06 8.61 27.1 7.99 26.97 7.38C26.89 6.91 26.7 6.43 26.33 6.11C26.08 5.89 25.77 5.77 25.45 5.7C25.13 5.64 24.78 5.77 24.59 6.03C24.25 6.45 24.17 7 24.15 7.52C24.15 16.65 24.16 25.77 24.15 34.9C21.71 34.12 19.26 33.34 16.82 32.56C16.82 21.71 16.82 10.85 16.82 0Z" fill="#FBF503" fill-opacity="1.000000" fill-rule="nonzero"></path>
    <path id="Vector" d="M5.84 23.09C9.03 21.96 12.21 20.81 15.39 19.68C15.4 20.94 15.39 22.2 15.4 23.46C15.39 23.63 15.41 23.8 15.38 23.97C12.87 24.86 10.35 25.78 7.84 26.68C7.49 26.81 7.13 26.96 6.86 27.23C6.74 27.36 6.63 27.54 6.7 27.72C6.79 27.93 7 28.05 7.2 28.14C7.75 28.36 8.36 28.39 8.95 28.42C9.6 28.41 10.26 28.36 10.9 28.22C11.34 28.13 11.75 27.99 12.17 27.83C13.24 27.44 14.32 27.04 15.39 26.66C15.4 27.72 15.39 28.78 15.4 29.85C15.39 30.06 15.41 30.27 15.39 30.49C14.06 30.73 12.73 30.89 11.38 30.91C8.68 30.97 5.96 30.55 3.39 29.7C2.55 29.45 1.71 29.13 1.01 28.59C0.62 28.29 0.27 27.91 0.1 27.44C-0.05 27.05 -0.04 26.59 0.14 26.21C0.32 25.83 0.63 25.53 0.97 25.29C1.76 24.75 2.63 24.33 3.52 23.96C4.28 23.63 5.07 23.38 5.84 23.09Z" fill="#FBF503" fill-opacity="1.000000" fill-rule="nonzero"></path>
    <path id="Vector" d="M31.47 21.66C32.19 21.58 32.92 21.56 33.64 21.53C36.03 21.54 38.43 21.84 40.72 22.56C41.16 22.69 41.6 22.87 42.05 23.02C42.84 23.31 43.64 23.66 44.28 24.24C44.66 24.59 44.99 25.06 44.99 25.6C45.02 26.04 44.82 26.46 44.53 26.79C43.99 27.4 43.28 27.81 42.56 28.18C41.8 28.57 40.98 28.82 40.18 29.12C35.3 30.88 30.42 32.64 25.54 34.41C25.54 33.03 25.54 31.66 25.54 30.28C25.55 30.23 25.52 30.13 25.59 30.12C29.31 28.79 33.02 27.46 36.73 26.13C37.24 25.94 37.78 25.8 38.2 25.46C38.38 25.32 38.55 25.1 38.46 24.87C38.37 24.66 38.16 24.55 37.96 24.46C37.41 24.24 36.8 24.2 36.21 24.18C35.29 24.19 34.35 24.3 33.47 24.6C30.83 25.53 28.19 26.47 25.54 27.4C25.54 25.93 25.54 24.45 25.54 22.98C27.45 22.3 29.45 21.89 31.47 21.66Z" fill="#FBF503" fill-opacity="1.000000" fill-rule="nonzero"></path>
    <path id="Vector" d="M42.32 31.83C42.89 31.75 43.5 32.01 43.84 32.48C44.22 32.97 44.29 33.67 44.02 34.23C43.75 34.8 43.14 35.2 42.5 35.18C41.91 35.2 41.35 34.85 41.06 34.34C40.8 33.9 40.76 33.32 40.97 32.84C41.19 32.29 41.73 31.89 42.32 31.83ZM42.19 32.14C41.87 32.21 41.57 32.41 41.38 32.68C41.15 33 41.06 33.42 41.15 33.8C41.22 34.16 41.45 34.48 41.75 34.68C42.22 34.99 42.88 34.97 43.33 34.63C43.79 34.3 44.01 33.67 43.85 33.13C43.75 32.76 43.49 32.44 43.16 32.26C42.87 32.1 42.51 32.06 42.19 32.14Z" fill="#FBF503" fill-opacity="1.000000" fill-rule="nonzero"></path>
    <path id="Vector" d="M41.79 32.53C42.09 32.53 42.39 32.53 42.7 32.53C42.87 32.53 43.05 32.57 43.17 32.7C43.3 32.84 43.31 33.04 43.27 33.21C43.25 33.33 43.15 33.4 43.08 33.48C43.14 33.53 43.22 33.58 43.24 33.68C43.27 33.85 43.24 34.03 43.29 34.21C43.33 34.27 43.36 34.33 43.37 34.4C43.24 34.4 43.12 34.4 42.99 34.4C42.91 34.2 42.97 33.98 42.92 33.78C42.9 33.69 42.81 33.64 42.73 33.64C42.53 33.63 42.32 33.64 42.12 33.64C42.12 33.89 42.13 34.15 42.11 34.4C42.01 34.4 41.9 34.4 41.79 34.4C41.79 33.78 41.79 33.15 41.79 32.53ZM42.12 32.83C42.12 33 42.12 33.17 42.12 33.35C42.3 33.35 42.48 33.35 42.67 33.35C42.76 33.35 42.86 33.33 42.92 33.25C42.98 33.15 42.98 33.02 42.92 32.92C42.88 32.84 42.78 32.83 42.7 32.83C42.5 32.82 42.31 32.83 42.12 32.83Z" fill="#FBF503" fill-opacity="1.000000" fill-rule="nonzero"></path>
  </symbol>
  <symbol fill="none" xmlns="http://www.w3.org/2000/svg" xmlns:xlink="http://www.w3.org/1999/xlink" viewBox="0 0 132 132" id="sale">
    <desc>Created with Pixso.</desc>
    <defs></defs>
    <path d="M117.36 48.46L119.4 25.26L97.74 20.11L86.4 0L66 9.17L45.6 0L34.25 20.05L12.6 25.14L14.64 48.39L0 66L14.64 83.53L12.6 106.79L34.25 111.94L45.6 132L66 122.76L86.4 131.93L97.74 111.88L119.4 106.73L117.36 83.53L132 66L117.36 48.46ZM126.78 66L113.23 49.75L113.37 48.11L115.11 28.36L95.11 23.6L84.7 5.14L66 13.56L47.28 5.14L36.87 23.54L16.88 28.24L18.76 49.69L5.2 65.99L18.76 82.24L16.88 103.7L36.88 108.46L47.28 126.84L65.99 118.37L84.71 126.79L95.11 108.39L115.11 103.64L113.23 82.24L126.78 66Z" fill="#F8F200" fill-opacity="1.000000" fill-rule="evenodd"></path>
    <path d="M49.16 85.24Q47.25 85.32 45.17 87.4Q44.07 88.5 43.34 89.81Q42.6 91.11 42.26 92.26L44.24 93.08Q44.6 92.04 45.14 90.98Q45.18 90.9 45.22 90.83Q45.74 89.84 46.57 89.01Q47.69 87.89 48.86 87.82Q50.03 87.76 51.45 89.18L52.13 89.86L50.26 91.85Q47.57 94.72 47.15 96.98Q46.97 97.99 47.2 98.89Q47.5 100 48.44 100.94Q49.91 102.41 51.46 102.49Q51.74 102.51 52.02 102.48Q52.25 102.45 52.49 102.4Q54.05 102.07 55.4 100.72Q56.84 99.28 57.21 98.02Q57.58 96.75 57.39 95.08L57.47 95L59.45 96.24L60.8 94.89L53.06 87.15Q51.08 85.16 49.18 85.24Q49.17 85.24 49.16 85.24ZM61.72 71.24L59.68 73.27L60.34 83.64L54.83 78.13L52.96 80L64.33 91.37L66.19 89.5L60.43 83.73L71.33 84.36L73.49 82.2L62.33 81.56L61.72 71.24ZM88.89 74.69L90.72 72.87L85.22 67.37L83.61 68.98L73.79 59.16L71.92 61.03L81.72 70.83L75.85 76.71L66.05 66.91L64.18 68.78L75.55 80.15L84.95 70.75L88.89 74.69ZM87.03 61.33Q86.54 60.8 86.28 60.54L79.35 53.61L77.59 55.37L88.95 66.74L91.27 64.42L87.81 48.88Q88.06 49.17 88.59 49.74Q89.1 50.29 89.65 50.86Q90.19 51.42 90.53 51.76L97.23 58.46L98.96 56.73L87.6 45.36L85.31 47.65L88.75 63.26Q88.47 62.94 87.99 62.4Q87.51 61.86 87.03 61.33ZM101.13 54.56L103.29 52.4L101.71 44.95L104.46 42.2L108.98 46.71L110.85 44.84L99.48 33.47L94.39 38.57Q92.56 40.39 92.32 42.36Q92.24 42.94 92.34 43.5Q92.56 44.81 93.71 45.95Q94.7 46.95 95.75 47.23Q96.58 47.46 97.37 47.35Q97.58 47.33 97.79 47.28Q98.78 47.03 99.6 46.54L101.13 54.56ZM96.82 44.91Q96.13 44.77 95.53 44.17Q95.04 43.68 94.87 43.1Q94.75 42.72 94.77 42.29Q94.83 41.22 96.13 39.93L99.16 36.89L102.92 40.65L100.24 43.32Q98.93 44.64 97.72 44.89Q97.25 44.99 96.82 44.91ZM49.53 96.53Q49.76 95.12 51.79 92.91L53.4 91.17L54.42 92.19Q55.84 93.61 55.92 95.11Q55.94 95.36 55.92 95.6Q55.88 95.93 55.81 96.25Q55.48 97.62 54.32 98.79Q53.41 99.69 52.4 99.84Q52.38 99.84 52.37 99.84Q52.18 99.87 51.99 99.86Q51.17 99.8 50.39 99.03Q49.76 98.39 49.57 97.65Q49.44 97.12 49.53 96.53Z" fill="#F8F200" fill-opacity="1.000000" fill-rule="evenodd"></path>
  </symbol>
  <symbol fill="none" xmlns="http://www.w3.org/2000/svg" xmlns:xlink="http://www.w3.org/1999/xlink" viewBox="0 0 58 50.2686" id="stadia">
    <desc>Created with Pixso.</desc>
    <defs></defs>
    <path d="M8.91 8.19C8.69 8.36 8.57 8.61 8.56 8.88L8.56 8.89C8.57 9 8.59 9.11 8.63 9.22L12.55 18.36C12.72 18.77 13.17 18.96 13.57 18.82C16.13 17.87 25 14.89 30.74 16.5C30.74 16.5 24.98 16.84 19.78 21.05C19.48 21.29 19.38 21.71 19.53 22.06C19.96 23.04 20.81 25.02 21.29 26.14L21.96 27.77C22.12 28.16 22.63 28.21 22.86 27.86C24.07 25.97 26.12 25.03 28.09 24.2C30.1 23.36 32.21 22.73 34.35 22.36C36.64 21.96 38.97 21.85 41.28 22.07C41.67 22.1 42.02 21.86 42.14 21.48L43.91 15.65C44.01 15.31 43.89 14.93 43.61 14.72C41.64 13.25 33.83 8.3 20.11 10.29C20.11 10.29 31.82 3.35 46.69 10.97C47.14 11.21 47.68 10.96 47.83 10.47L49.39 5.33C49.41 5.25 49.42 5.17 49.43 5.09L49.43 5.07C49.42 4.78 49.27 4.5 49.01 4.35C47.15 3.26 40.83 0 32.14 0C25.48 -0.01 17.42 1.91 8.91 8.19Z" fill="#FBF503" fill-opacity="1.000000" fill-rule="evenodd"></path>
    <path d="M16.42 50.25L15.01 50.25C14.9 50.25 14.8 50.21 14.72 50.13C14.65 50.05 14.61 49.95 14.61 49.83L14.61 41.4L11.15 41.4C10.93 41.4 10.75 41.22 10.75 40.99L10.75 39.68C10.75 39.45 10.93 39.27 11.15 39.27L20.28 39.27C20.5 39.27 20.68 39.45 20.68 39.68L20.68 40.99C20.68 41.22 20.5 41.4 20.28 41.4L16.82 41.4L16.82 49.83C16.82 49.95 16.78 50.05 16.7 50.13C16.63 50.21 16.52 50.25 16.42 50.25ZM9.82 49.45C10.34 48.92 10.55 48.24 10.55 47.11L10.55 46.82C10.55 45.69 10.34 45.01 9.82 44.47C9.27 43.91 8.55 43.68 7.32 43.68L2.85 43.68C2.67 43.68 2.5 43.6 2.38 43.47C2.25 43.34 2.18 43.17 2.18 42.98L2.18 42.1C2.18 41.71 2.48 41.4 2.85 41.4L9.25 41.4C9.47 41.4 9.65 41.22 9.65 40.99L9.65 39.68C9.65 39.45 9.47 39.27 9.25 39.27L3.23 39.27C2 39.27 1.27 39.5 0.72 40.07C0.21 40.6 0 41.28 0 42.41L0 42.64C0 43.77 0.21 44.45 0.72 44.98C1.27 45.55 2 45.78 3.23 45.78L7.71 45.78C8.08 45.78 8.38 46.09 8.38 46.47L8.38 47.42C8.38 47.8 8.08 48.11 7.71 48.11L0.98 48.11C0.75 48.11 0.57 48.3 0.57 48.53L0.57 49.83C0.57 49.95 0.62 50.05 0.69 50.13C0.77 50.21 0.87 50.25 0.98 50.25L7.32 50.25C8.55 50.25 9.27 50.02 9.82 49.45ZM41.74 44.73L41.74 44.8C41.74 46.92 41.42 48.01 40.5 48.95C39.66 49.83 38.4 50.26 36.75 50.26L31.88 50.26C31.66 50.26 31.48 50.08 31.48 49.85L31.48 39.68C31.48 39.45 31.66 39.27 31.88 39.27L36.75 39.27C38.4 39.27 39.66 39.71 40.5 40.58C41.42 41.52 41.74 42.61 41.74 44.73ZM39.53 44.73C39.53 43.32 39.44 42.64 38.91 42.09C38.47 41.64 37.77 41.42 36.75 41.42L33.7 41.42L33.7 48.11L36.75 48.11C37.77 48.11 38.47 47.89 38.91 47.44C39.44 46.89 39.53 46.21 39.53 44.8L39.53 44.73ZM45.33 49.83L45.33 39.68C45.33 39.45 45.15 39.27 44.93 39.27L43.52 39.27C43.3 39.27 43.12 39.45 43.12 39.68L43.12 49.83C43.12 50.06 43.3 50.25 43.52 50.25L44.93 50.25C45.04 50.25 45.14 50.21 45.22 50.13C45.29 50.05 45.34 49.95 45.34 49.83L45.33 49.83ZM30.19 50.25L28.69 50.25C28.48 50.25 28.29 50.12 28.21 49.93L27.52 48.39L21.98 48.39L21.29 49.93C21.21 50.12 21.02 50.25 20.81 50.25L19.31 50.25C19.17 50.25 19.04 50.18 18.97 50.06C18.9 49.93 18.89 49.78 18.95 49.65L23.48 39.91C23.72 39.41 24.21 39.09 24.75 39.09C25.29 39.09 25.78 39.41 26.02 39.91L30.55 49.65C30.61 49.78 30.6 49.93 30.53 50.06C30.45 50.18 30.33 50.25 30.19 50.25L30.19 50.25ZM22.89 46.36L26.62 46.36L24.76 41.97L22.89 46.36ZM57.59 50.25L56.1 50.25C55.89 50.25 55.7 50.12 55.61 49.93L54.93 48.39L49.39 48.39L48.7 49.93C48.61 50.12 48.42 50.25 48.22 50.25L46.72 50.25C46.58 50.25 46.45 50.18 46.38 50.06C46.3 49.93 46.29 49.78 46.35 49.65L50.89 39.91C51.12 39.41 51.61 39.09 52.15 39.09C52.69 39.09 53.19 39.41 53.42 39.91L57.95 49.65C58.02 49.78 58.01 49.93 57.93 50.06C57.86 50.18 57.73 50.25 57.59 50.25L57.59 50.25ZM50.29 46.36L54.02 46.36L52.16 41.97L50.29 46.36Z" fill="#FBF503" fill-opacity="1.000000" fill-rule="nonzero"></path>
  </symbol>
  <symbol fill="none" xmlns="http://www.w3.org/2000/svg" xmlns:xlink="http://www.w3.org/1999/xlink" viewBox="0 0 32 32" id="stars">
    <desc>Created with Pixso.</desc>
    <defs>
      <clipPath id="clip20_513">
        <rect id="auto_awesome" width="32.000000" height="32.000000" fill="white" fill-opacity="0"></rect>
      </clipPath>
    </defs>
    <g clip-path="url(#clip20_513)">
      <path id="Vector" d="M25.33 12L27 8.33L30.66 6.66L27 5L25.33 1.33L23.66 5L20 6.66L23.66 8.33L25.33 12ZM15.33 12.66L12 5.33L8.66 12.66L1.33 16L8.66 19.33L12 26.66L15.33 19.33L22.66 16L15.33 12.66ZM25.33 20L23.66 23.66L20 25.33L23.66 27L25.33 30.66L27 27L30.66 25.33L27 23.66L25.33 20Z" fill="#000000" fill-opacity="1.000000" fill-rule="nonzero"></path>
    </g>
  </symbol>
  <symbol fill="none" xmlns="http://www.w3.org/2000/svg" xmlns:xlink="http://www.w3.org/1999/xlink" viewBox="0 0 28.3636 30" id="twich">
    <desc>Created with Pixso.</desc>
    <defs></defs>
    <path id="Vector" d="M1.99 0L0 5.14L0 26.19L7.09 26.19L7.09 30L11.08 30L14.84 26.19L20.61 26.19L28.36 18.36L28.36 0L1.99 0ZM25.7 17.01L21.27 21.49L14.18 21.49L10.41 25.29L10.41 21.49L4.43 21.49L4.43 2.68L25.7 2.68L25.7 17.01ZM21.27 7.83L21.27 15.66L18.61 15.66L18.61 7.83L21.27 7.83ZM14.18 7.83L14.18 15.66L11.52 15.66L11.52 7.83L14.18 7.83Z" fill="#000000" fill-opacity="1.000000" fill-rule="nonzero"></path>
  </symbol>
  <symbol fill="none" xmlns="http://www.w3.org/2000/svg" xmlns:xlink="http://www.w3.org/1999/xlink" viewBox="0 0 30 30" id="twitter">
    <desc>Created with Pixso.</desc>
    <defs></defs>
    <path id="Vector" d="M26.78 0L3.21 0C1.43 0 0 1.43 0 3.21L0 26.78C0 28.56 1.43 30 3.21 30L26.78 30C28.56 30 30 28.56 30 26.78L30 3.21C30 1.43 28.56 0 26.78 0ZM23.51 10.63C23.52 10.82 23.52 11.01 23.52 11.2C23.52 17 19.1 23.69 11.02 23.69C8.53 23.69 6.22 22.97 4.28 21.72C4.64 21.77 4.98 21.78 5.34 21.78C7.39 21.78 9.28 21.08 10.79 19.9C8.86 19.86 7.24 18.6 6.68 16.86C7.36 16.96 7.97 16.96 8.67 16.78C6.66 16.37 5.15 14.6 5.15 12.46L5.15 12.41C5.73 12.74 6.42 12.94 7.13 12.97C6.53 12.57 6.04 12.02 5.7 11.38C5.35 10.75 5.18 10.03 5.18 9.31C5.18 8.49 5.39 7.74 5.77 7.09C7.94 9.76 11.18 11.5 14.83 11.69C14.2 8.71 16.43 6.29 19.11 6.29C20.38 6.29 21.52 6.82 22.32 7.68C23.31 7.49 24.26 7.12 25.11 6.62C24.78 7.64 24.09 8.49 23.18 9.04C24.06 8.94 24.92 8.69 25.71 8.35C25.11 9.23 24.36 10.01 23.51 10.63Z" fill="#000000" fill-opacity="1.000000" fill-rule="nonzero"></path>
  </symbol>
  <symbol fill="none" xmlns="http://www.w3.org/2000/svg" xmlns:xlink="http://www.w3.org/1999/xlink" viewBox="0 0 30 30" id="vk">
    <desc>Created with Pixso.</desc>
    <defs></defs>
    <path id="Vector" d="M19.6 0L10.39 0C1.98 0 0 1.99 0 10.39L0 19.6C0 28.01 1.98 30 10.39 30L19.6 30C28.01 30 30 28.01 30 19.6L30 10.39C30 1.99 27.98 0 19.6 0ZM24.22 21.4L22.04 21.4C21.21 21.4 20.96 20.74 19.47 19.24C18.18 17.99 17.61 17.82 17.29 17.82C16.85 17.82 16.72 17.95 16.72 18.56L16.72 20.53C16.72 21.06 16.55 21.38 15.15 21.38C12.85 21.38 10.28 19.98 8.48 17.38C5.78 13.57 5.03 10.71 5.03 10.12C5.03 9.8 5.16 9.5 5.77 9.5L7.95 9.5C8.5 9.5 8.72 9.75 8.93 10.35C10.01 13.46 11.81 16.19 12.55 16.19C12.82 16.19 12.95 16.06 12.95 15.37L12.95 12.15C12.87 10.66 12.08 10.54 12.08 10.01C12.08 9.75 12.3 9.5 12.63 9.5L16.06 9.5C16.53 9.5 16.7 9.75 16.7 10.3L16.7 14.65C16.7 15.11 16.91 15.28 17.04 15.28C17.31 15.28 17.54 15.11 18.05 14.6C19.62 12.85 20.74 10.14 20.74 10.14C20.89 9.82 21.14 9.52 21.7 9.52L23.88 9.52C24.53 9.52 24.68 9.86 24.53 10.33C24.26 11.6 21.59 15.36 21.59 15.36C21.36 15.75 21.27 15.91 21.59 16.34C21.82 16.66 22.58 17.31 23.09 17.91C24.02 18.96 24.74 19.85 24.93 20.47C25.15 21.08 24.83 21.4 24.21 21.4L24.22 21.4Z" fill="#000000" fill-opacity="1.000000" fill-rule="nonzero"></path>
  </symbol>
  <symbol fill="none" xmlns="http://www.w3.org/2000/svg" xmlns:xlink="http://www.w3.org/1999/xlink" viewBox="0 0 178 35.188" id="xbox">
    <desc>Created with Pixso.</desc>
    <defs>
      <clipPath id="clip15_59">
        <rect width="178.000000" height="35.187801" fill="white" fill-opacity="0"></rect>
      </clipPath>
    </defs>
    <rect width="178.000000" height="35.187801" fill="#FFFFFF" fill-opacity="0"></rect>
    <g clip-path="url(#clip15_59)">
      <path d="M113.88 28.42L107.08 19.27L100.29 28.42L97.5 28.42L105.67 17.36L98.21 7.31L101 7.31L107.08 15.51L113.16 7.31L115.95 7.31L108.5 17.36L116.67 28.42L113.88 28.42ZM60.93 28.42L52.75 17.36L60.21 7.31L57.42 7.31L51.34 15.51L45.26 7.31L42.47 7.31L49.93 17.36L41.75 28.42L44.55 28.42L51.34 19.27L58.13 28.42L60.93 28.42Z" fill="#FBF503" fill-opacity="1.000000" fill-rule="nonzero"></path>
      <path d="M76.48 18.16C76.06 17.8 75.59 17.51 75.08 17.28C75.86 16.87 76.5 16.26 76.95 15.52C77.4 14.77 77.64 13.92 77.64 13.05C77.64 11.7 77.14 7.31 70.73 7.31L62.09 7.31L62.09 16.41L59.22 16.41C58.84 16.89 58 18.05 57.67 18.53L62.09 18.53L62.09 28.42L70.73 28.42C75.41 28.42 78.31 26.06 78.31 22.26C78.31 20.6 77.68 19.18 76.48 18.16ZM64.48 9.51L70.73 9.51C72.42 9.51 75.25 9.93 75.25 12.87C75.25 15.09 73.6 16.41 70.73 16.41L64.48 16.41L64.48 9.51ZM70.73 26.22L64.48 26.22L64.48 18.53L70.73 18.53C73.1 18.53 75.93 19.18 75.93 22.21C75.93 25.69 72.67 26.22 70.73 26.22ZM89.55 6.83C83.58 6.83 79.4 11.36 79.4 17.85C79.4 24.36 83.58 28.89 89.55 28.89C95.52 28.89 99.68 24.36 99.68 17.85C99.68 11.36 95.52 6.83 89.55 6.83ZM89.55 26.65C85 26.65 81.81 23.03 81.81 17.85C81.81 12.67 85 9.06 89.55 9.06C94.09 9.06 97.26 12.67 97.26 17.85C97.26 23.03 94.09 26.65 89.55 26.65ZM5.29 5.05L5.27 5.07L5.27 5.07C3.6 6.71 2.27 8.65 1.37 10.8C0.46 12.95 0 15.26 0 17.59C0 21.44 1.27 25.19 3.62 28.25C3.65 28.28 3.69 28.29 3.72 28.28C3.75 28.26 3.75 28.22 3.74 28.18C2.39 24.04 9.3 13.99 12.87 9.77C12.88 9.76 12.89 9.74 12.89 9.72C12.89 9.7 12.88 9.68 12.86 9.66C6.86 3.73 5.25 5.09 5.27 5.07L5.29 5.05ZM30.17 5.05L30.19 5.07L30.19 5.07C31.86 6.71 33.19 8.65 34.09 10.8C35 12.95 35.46 15.26 35.46 17.59C35.46 21.44 34.19 25.19 31.83 28.25C31.81 28.28 31.77 28.29 31.74 28.28C31.71 28.26 31.71 28.22 31.72 28.18C33.07 24.04 26.17 13.98 22.6 9.76C22.59 9.75 22.57 9.73 22.57 9.71C22.57 9.69 22.59 9.67 22.61 9.65C28.61 3.72 30.2 5.09 30.18 5.07L30.17 5.05ZM17.73 0C21.31 0 24.25 0.97 26.96 2.57C27 2.59 27.01 2.62 26.99 2.66C26.98 2.69 26.94 2.7 26.91 2.69C23.48 1.95 18.26 4.89 17.77 5.19C17.76 5.19 17.75 5.2 17.73 5.2C17.71 5.2 17.7 5.19 17.69 5.19C16.38 4.44 11.56 1.93 8.52 2.7C8.49 2.71 8.45 2.71 8.44 2.67C8.43 2.66 8.43 2.64 8.44 2.62C8.44 2.61 8.45 2.6 8.47 2.59C11.18 0.97 14.16 0 17.73 0ZM17.73 14.11C17.75 14.11 17.77 14.12 17.79 14.13C23.09 18.14 32.17 28.03 29.4 30.83L29.4 30.83L29.4 30.83L29.4 30.83C26.17 33.64 22.02 35.19 17.73 35.18C13.43 35.19 9.29 33.64 6.06 30.83L6.05 30.83L6.06 30.83C3.29 28.03 12.37 18.14 17.67 14.13C17.68 14.12 17.71 14.11 17.73 14.11ZM157.94 7.31L157.94 24.63L145.09 7.3L142.98 7.3L142.98 28.38L145.35 28.38L145.35 11.45L157.94 28.4L160.31 28.4L160.31 7.31L157.94 7.31ZM130.69 6.82C124.71 6.82 120.54 11.36 120.54 17.85C120.54 24.35 124.71 28.89 130.69 28.89C136.66 28.89 140.82 24.35 140.82 17.85C140.82 11.36 136.66 6.82 130.69 6.82ZM130.69 26.65C126.14 26.65 122.95 23.03 122.95 17.85C122.95 12.67 126.14 9.05 130.69 9.05C135.23 9.05 138.4 12.67 138.4 17.85C138.4 23.03 135.23 26.65 130.69 26.65ZM165.35 26.34L165.35 18.53L177.05 18.53L177.05 16.47L165.35 16.47L165.35 9.36L177.85 9.36L177.85 7.3L162.97 7.3L162.97 28.4L177.99 28.4L177.99 26.34L165.35 26.34Z" fill="#FBF503" fill-opacity="1.000000" fill-rule="nonzero"></path>
    </g>
  </symbol>
  <symbol fill="none" xmlns="http://www.w3.org/2000/svg" xmlns:xlink="http://www.w3.org/1999/xlink" viewBox="0 0 23.4546 28.3636" id="yt">
    <desc>Created with Pixso.</desc>
    <defs></defs>
    <path id="YouTube" d="M19.83 20.74L18.29 20.74L18.3 19.84C18.3 19.44 18.62 19.11 19.02 19.11L19.12 19.11C19.52 19.11 19.85 19.44 19.85 19.84L19.83 20.74ZM14.04 18.8C13.65 18.8 13.33 19.07 13.33 19.39L13.33 23.79C13.33 24.12 13.65 24.38 14.04 24.38C14.43 24.38 14.75 24.12 14.75 23.79L14.75 19.39C14.75 19.07 14.43 18.8 14.04 18.8ZM23.45 16.34L23.45 24.71C23.45 26.72 21.72 28.36 19.61 28.36L3.83 28.36C1.72 28.36 0 26.72 0 24.71L0 16.34C0 14.34 1.72 12.7 3.83 12.7L19.61 12.7C21.72 12.7 23.45 14.34 23.45 16.34ZM4.89 25.62L4.88 16.81L6.84 16.81L6.84 15.5L1.63 15.49L1.63 16.78L3.25 16.78L3.25 25.62L4.89 25.62ZM10.75 18.12L9.12 18.12L9.12 22.82C9.12 23.51 9.16 23.85 9.12 23.97C8.98 24.33 8.39 24.72 8.15 24.01C8.12 23.88 8.15 23.5 8.15 22.86L8.14 18.12L6.52 18.12L6.53 22.78C6.53 23.5 6.51 24.03 6.53 24.27C6.57 24.7 6.56 25.2 6.95 25.48C7.68 26.02 9.09 25.4 9.44 24.64L9.44 25.61L10.75 25.62L10.75 18.12L10.75 18.12ZM15.97 23.51L15.96 19.59C15.96 18.1 14.85 17.2 13.35 18.41L13.36 15.5L11.73 15.5L11.72 25.55L13.06 25.53L13.18 24.91C14.89 26.49 15.97 25.41 15.97 23.51ZM21.07 22.99L19.85 23C19.85 23.04 19.84 23.1 19.84 23.16L19.84 23.85C19.84 24.22 19.54 24.52 19.18 24.52L18.94 24.52C18.57 24.52 18.27 24.22 18.27 23.85L18.27 23.77L18.27 23.02L18.27 22.04L21.07 22.04L21.07 20.98C21.07 20.2 21.05 19.43 20.98 18.98C20.78 17.58 18.83 17.36 17.84 18.07C17.53 18.3 17.29 18.6 17.16 19C17.02 19.41 16.95 19.96 16.95 20.66L16.95 22.99C16.95 26.88 21.63 26.33 21.07 22.99ZM14.8 10.31C14.88 10.52 15.01 10.68 15.19 10.81C15.36 10.93 15.59 11 15.86 11C16.09 11 16.3 10.93 16.48 10.8C16.66 10.67 16.81 10.47 16.94 10.21L16.91 10.86L18.73 10.86L18.73 3.06L17.29 3.06L17.29 9.13C17.29 9.46 17.03 9.73 16.7 9.73C16.37 9.73 16.1 9.46 16.1 9.13L16.1 3.06L14.61 3.06L14.61 8.32C14.61 8.99 14.62 9.44 14.64 9.66C14.66 9.89 14.71 10.1 14.8 10.31ZM9.29 5.91C9.29 5.16 9.35 4.58 9.47 4.16C9.6 3.74 9.82 3.4 10.14 3.15C10.46 2.89 10.87 2.76 11.37 2.76C11.79 2.76 12.15 2.85 12.46 3.01C12.76 3.17 12.99 3.39 13.15 3.65C13.32 3.91 13.43 4.18 13.49 4.46C13.55 4.74 13.58 5.16 13.58 5.74L13.58 7.71C13.58 8.43 13.55 8.96 13.5 9.3C13.44 9.64 13.32 9.95 13.14 10.24C12.96 10.54 12.72 10.75 12.44 10.89C12.15 11.03 11.82 11.1 11.45 11.1C11.04 11.1 10.69 11.04 10.4 10.92C10.11 10.8 9.89 10.62 9.73 10.38C9.57 10.14 9.46 9.85 9.39 9.51C9.32 9.17 9.29 8.66 9.29 7.97L9.29 5.91L9.29 5.91ZM10.71 9.01C10.71 9.45 11.04 9.81 11.43 9.81C11.83 9.81 12.16 9.45 12.16 9.01L12.16 4.86C12.16 4.42 11.83 4.06 11.43 4.06C11.04 4.06 10.71 4.42 10.71 4.86L10.71 9.01ZM5.68 11.1L7.4 11.1L7.4 5.12L9.42 0.01L7.55 0.01L6.47 3.81L5.38 0L3.52 0L5.68 5.13L5.68 11.1Z" fill="#000000" fill-opacity="1.000000" fill-rule="nonzero"></path>
  </symbol>
  
</svg>